<svg version="1.1" xmlns="http://www.w3.org/2000/svg" xmlns:xlink="http://www.w3.org/1999/xlink" x="0px" y="0px" viewBox="0 0 1000 1000" enable-background="new 0 0 1000 1000" xml:space="preserve">
<metadata> Svg Vector Icons : http://www.onlinewebfonts.com/icon </metadata>
<g><g id="_x35_151e0c8492e5103c096af88a51fc328"><path fill="#47ff4e" d="M770.9,341.3l-32.1,22.2c-23.5-25.6-51.3-47.2-82.3-63.6L925.1,76.6L721.8,10L541.6,265.5c-6.4-0.6-12.8-1-19.3-1.2L679.2,10.4l-193.4,1.4l-81.4,272.3c-5.1,1.9-10,4-15,6.1l45.8-247.6L275.7,106l20.1,248.7c-2.4,2.5-4.8,5-7.2,7.5l-45.1-215.2L131.8,254.6l99.3,195.8c-1.8,4.3-3.6,8.7-5.2,13.1L124.5,317.4l-47.4,111l131.1,110.6c-0.5,4.8-0.9,9.6-1.1,14.4L83.5,461.3L74.9,570L211.1,624c0.7,3.7,1.4,7.4,2.1,11.1L86.1,599.9l27.9,92.7l118.1,0.7c1.1,2.6,2.3,5.2,3.5,7.8l-109.1,13.1l55,68.1l82.2-33.2c13.5,18.8,29,36,46.2,51.3l10-20.5c0,0,16.8-24.9,96.3-27.7c37.2-1.3,79.3,4.6,113.5,11.3L632.6,990c0,0,24.6-7,52.6-24.6c28-17.5,49-56.1,49-56.1s-35-105.2-73.6-147.2c-38.6-42-84.1-63.1-105.2-87.7c-16.7-19.4-42.2-36.7-52-43l-5.2-9.3L813,551.6L770.9,341.3z M296,469.2c-52.6,131.5,56,259.4,56,259.4l-45.6,15.7c0,0-2.7-3.4-6.8-9.7l8.8-3.6l-23.1-19.9c-26-46.9-62.5-137.5-26.2-233.3C311.8,339.6,466,304.5,466,304.5l17.6,5.3C483.5,309.8,336.3,368.3,296,469.2z M409.2,768.5c44.7,0,79,18.4,79,18.4s-63.1-4.2-99.6,3.5c-20.5,4.3-42.7,19.3-55.3,28.9c-1.3-1-2.7-1.9-4-2.9l14.6-26C343.9,790.4,364.5,768.5,409.2,768.5z"/></g></g>
</svg>